# xmcd
#
# Track frame offsets:
#	150
#	13962
#	27800
#	43685
#	59595
#	73705
#	87970
#	102892
#	116440
#	130992
#	145682
#	160610
#	176180
#	190505
#	205582
#	220655
#	235137
#
# Disc length: 3305 seconds
#
# Revision: 0
# Processed by: cddbd v1.5.1PL0 Copyright (c) Steve Scherf et al.
# Submitted via: dBpowerAMP V4.0
#
DISCID=e70ce711
DTITLE=Ethel Waters - The Incomparable Ethel Water
DYEAR=1925
DGENRE=Blues
TTITLE0=Heat Wave
TTITLE1=I Just Couldn't Make It, Baby
TTITLE2=Harlem On My Mind
TTITLE3=Hottentot Potentate
TTITLE4=Stormy Weather
TTITLE5=Come Up And See Me Sometime
TTITLE6=Shake That Thing
TTITLE7=(What Did I Do To Be So) Black and Blue?
TTITLE8=Please Don't Talk About Me When I'm Gone
TTITLE9=Maybe Not At All
TTITLE10=Memories Of You
TTITLE11=You Can't Stop Me From Loving You
TTITLE12=You're Lucky To Me
TTITLE13=Cabin In The Sky
TTITLE14=Thief in the Night
TTITLE15=Taking a Chance on Love
TTITLE16=Honey in the Honeycomb
EXTD=
EXTT0=
EXTT1=
EXTT2=
EXTT3=
EXTT4=
EXTT5=
EXTT6=
EXTT7=
EXTT8=
EXTT9=
EXTT10=
EXTT11=
EXTT12=
EXTT13=
EXTT14=
EXTT15=
EXTT16=
PLAYORDER=
